<svg xmlns="http://www.w3.org/2000/svg" enable-background="new 0 0 451.5 519.3" viewBox="0 0 451.5 519.3"><path d="M401.9,67.7h-67V22.6c0-12.5-10.1-22.6-22.6-22.6h-7.5c-12.5,0-22.6,10.1-22.6,22.6v45.2H169.3V22.6  c0-12.5-10.1-22.6-22.6-22.6h-7.5c-12.5,0-22.6,10.1-22.6,22.6v45.2h-67C22.3,67.7,0,90,0,117.4v331.4c0,38.8,31.6,70.4,70.5,70.4  h310.6c38.8,0,70.4-31.6,70.4-70.4V117.4C451.5,90,429.3,67.7,401.9,67.7z M49.6,112.9h67v15.1c0,12.5,10.1,22.6,22.6,22.6h7.5  c12.5,0,22.6-10.1,22.6-22.6v-15.1h112.9v15.1c0,12.5,10.1,22.6,22.6,22.6h7.5c12.5,0,22.6-10.1,22.6-22.6v-15.1h67  c2.5,0,4.5,2,4.5,4.5v82.5H45.2v-82.5C45.2,114.9,47.2,112.9,49.6,112.9z M381.1,474.1H70.5c-13.9,0-25.3-11.3-25.3-25.3V245h361.2  v203.8C406.4,462.8,395,474.1,381.1,474.1z" fill="#949cee" class="color000 svgShape"/></svg>